<?xml version="1.0" standalone="no"?> 
<!DOCTYPE svg PUBLIC "-//W3C//DTD SVG 1.1//EN" "http://www.w3.org/Graphics/SVG/1.1/DTD/svg11.dtd" >
<svg xmlns="http://www.w3.org/2000/svg">
<defs>
  <font id="myfont" horiz-adv-x="1500">
    <font-face font-family="myfont"
      units-per-em="1000" ascent="1000"
      descent="0" />
    <missing-glyph horiz-adv-x="0" />
    <glyph glyph-name="MAC_CarouselArrow"
      unicode="&#xE001;"
      horiz-adv-x="1000" d=" M738 492L738 492L262 18.4L254 26.4L730 500L253.8 973.4L261.8 981.4L746.2 500L738 492z" />
    <glyph glyph-name="MAC_DetailPageArrow"
      unicode="&#xE002;"
      horiz-adv-x="8666.666666666666" d=" M8666.666666666666 500L8083.333333333333 1000L8083.333333333333 583.3333333333334L0 583.3333333333334L0 416.6666666666668L8083.333333333333 416.6666666666668L8083.333333333333 0z" />
    <glyph glyph-name="MAC_Facebook"
      unicode="&#xE003;"
      horiz-adv-x="1000" d=" M569.4 52.6V460.4L569.4 460.4V460.8H706.4L727 619.8H569.2V721.1999999999999C568.4000000000001 773.3999999999999 582.2 798.5999999999999 648.2 798.5999999999999H727.6C729.2 798.5999999999999 730.8000000000001 798.5999999999999 732.4 799V941.2C717.8 943.2 668 947.2 609.6 947.2C496.4 947.2 416.2000000000001 882.8 406 763.6C405.6 755.8 405.2 747 404.8 736.8V706.4000000000001C404.8 704.4000000000001 404.8 702.4000000000001 404.8 700.4000000000001V620.2L404.8 620.2V619.8000000000001H267.4V460.8000000000001H404.8V52.6000000000001L569.4 52.6L569.4 52.6z" />
    <glyph glyph-name="MAC_FollowPlusSign"
      unicode="&#xE004;"
      horiz-adv-x="1000" d=" M992.8571428571428 428.5714285714286H571.4285714285714V7.1428571428571H428.5714285714286V428.5714285714286H7.1428571428571V571.4285714285714H428.5714285714286V992.8571428571428H571.4285714285714V571.4285714285714H992.8571428571428V428.5714285714286z" />
    <glyph glyph-name="MAC_MenuDownArrow"
      unicode="&#xE005;"
      horiz-adv-x="1675.9259259259259" d=" M851.8518518518518 27.7777777777777L27.7777777777778 851.851851851852L166.6666666666667 981.4814814814814L851.8518518518518 296.2962962962964L1537.037037037037 981.4814814814814L1666.6666666666665 851.851851851852z" />
    <glyph glyph-name="MAC_Pinterest"
      unicode="&#xE006;"
      horiz-adv-x="992.8901528617134" d=" M495.9118378954852 931.7454674724494C256.3099893352293 931.7454674724494 62.2111624600071 737.6466405972271 62.2111624600071 498.0447920369713C62.2111624600071 314.2552435122647 176.3242090295059 157.4831141130467 337.71773906861 94.2054745822966C333.8073231425525 128.6882332029862 330.6078919303235 181.3011020263066 339.1397084962674 218.6277995023108C346.9605403483825 252.3995734091718 389.975115535016 434.0561677923926 389.975115535016 434.0561677923926S377.1773906861003 460.0071098471384 377.1773906861003 498.4002843938856C377.1773906861003 558.833985069321 412.0156416637043 603.6260220405261 455.7412015641664 603.6260220405261C492.7124066832563 603.6260220405261 510.4870245289727 575.8976182012087 510.4870245289727 542.481336651262C510.4870245289727 505.1546391752578 486.6690366157129 449.697831496623 474.5822964806258 398.1514397440456C464.2730181301102 355.1368645574121 496.2673302523996 319.9431212228938 538.9264130821188 319.9431212228938C616.0682545325276 319.9431212228938 675.0799857803058 401.3508709562746 675.0799857803058 518.6633487380022C675.0799857803058 622.4671169569856 600.4265908282973 694.9875577675081 494.1343761109137 694.9875577675081C370.7785282616425 694.9875577675081 298.25808745112 602.5595449697832 298.25808745112 506.9321009598294C298.25808745112 469.6054034838252 312.477781727693 429.7902595094207 330.6078919303236 408.1052257376467C334.1628154994669 403.8393174546748 334.5183078563812 399.9289015286171 333.4518307856382 395.6629932456453C330.2523995734092 381.7987913259865 322.7870600782084 352.6484180590118 321.3650906505511 346.6050479914682C319.5876288659794 338.784216139353 314.9662282260932 337.0067543547814 306.7899040170637 340.917170280839C252.7550657660861 366.1571276217561 218.6277995023108 445.431923213651 218.6277995023108 509.0650551013152C218.6277995023108 645.9296125133309 318.1656594383222 771.4184145040881 505.1546391752578 771.4184145040881C655.5279061500179 771.4184145040881 772.4848915748312 664.4152150728758 772.4848915748312 521.1517952364022C772.4848915748312 371.8450053323852 678.2794169925347 251.3330963384286 547.4582296480626 251.3330963384286C503.377177390686 251.3330963384286 462.1400639886242 274.0846071809455 447.9203697120512 301.1020263064343C447.9203697120512 301.1020263064343 426.2353359402773 218.2723071453962 420.9029505865624 198.0092428012796C410.9491645929613 160.3270529683611 384.6427301813011 113.0465694987556 366.8681123355848 84.2516885886953C407.394241023818 71.8094560966939 450.4088162104514 65.0551013153217 495.2008531816566 65.0551013153217C734.8027017419125 65.0551013153217 928.9015286171348 259.1539281905439 928.9015286171348 498.7557767507999C929.6125133309635 737.6466405972271 735.5136864557412 931.7454674724494 495.9118378954852 931.7454674724494z" />
    <glyph glyph-name="MAC_Reblog"
      unicode="&#xE007;"
      horiz-adv-x="1207.5670786855594" d=" M241.9354838709678 533.6147120892372L241.9354838709678 706.813385589388L940.0060295447694 706.813385589388L940.0060295447694 613.3554416641543L1067.8323786554117 707.5670786855592L1195.809466385288 801.7787157069641L1067.8323786554117 895.990352728369L940.0060295447694 990.201989749774L940.0060295447694 896.8947844437745L52.0048236358155 896.8947844437745L52.0048236358155 393.5785348206211L139.7347000301477 458.2454024721134z M965.6315948145916 466.3852879107627L965.6315948145916 293.1866144106119L267.7117877600242 293.1866144106119L267.7117877600242 386.6445583358457L139.7347000301477 292.4329213144407L11.7576123002713 198.2212842930359L139.7347000301477 104.0096472716309L267.7117877600242 9.7980102502261L267.7117877600242 103.2559541754597L1155.7129936689782 103.2559541754597L1155.7129936689782 606.421465179379L1067.8323786554117 541.7545975278866z" />
    <glyph glyph-name="MAC_SearchIcon"
      unicode="&#xE008;"
      horiz-adv-x="998.9991242337045" d=" M975.353434254973 107.4690354059803L715.6261729012887 367.3214062304517C828.4749155511073 520.8307268860253 815.5886400600525 738.6463155260853 676.8422369573377 877.3927186288003C523.8333541849119 1030.276491930439 274.6152883773302 1032.778681346178 121.7315150756913 877.2676091580133C-31.2773676967346 724.3838358563744 -31.2773676967346 475.1657700487928 121.7315150756913 322.1568872763669C260.4779181784062 183.4104841736521 478.2935068184661 170.5242086825973 631.8028274740398 283.372951332416L891.5300888277242 23.6456899787314C913.6744651570124 1.5013136494432 950.706868509946 1.5013136494432 975.4785437257598 23.6456899787314C997.6229200550484 45.7900663080196 997.6229200550484 85.3246590766922 975.353434254973 107.4690354059803zM205.55486050294 401.1009633429251C99.4620292756161 507.193794570249 99.4620292756161 682.3470536719631 205.55486050294 788.4398848992869S486.8009508319778 894.5327161266108 592.8937820593019 788.4398848992869S698.9866132866257 509.5708745152009 592.8937820593019 401.1009633429251C486.800950831978 295.0081321156012 311.647691730264 295.0081321156012 205.55486050294 401.1009633429251z" />
    <glyph glyph-name="MAC_SocialShare"
      unicode="&#xE009;"
      horiz-adv-x="838.7096774193549" d=" M387.0967741935484 261.2903225806453L451.6129032258065 261.2903225806453L451.6129032258065 770.9677419354839L609.6774193548387 770.9677419354839L419.3548387096775 993.5483870967741L229.0322580645162 770.9677419354839L387.0967741935484 770.9677419354839z M641.9354838709677 835.483870967742L641.9354838709677 770.9677419354839L770.9677419354838 770.9677419354839L770.9677419354838 70.9677419354839L67.741935483871 70.9677419354839L67.741935483871 770.9677419354839L196.7741935483871 770.9677419354839L196.7741935483871 835.483870967742L67.741935483871 835.483870967742L6.4516129032258 835.483870967742L6.4516129032258 770.9677419354839L6.4516129032258 70.9677419354839L6.4516129032258 6.4516129032257L67.741935483871 6.4516129032257L832.258064516129 6.4516129032257L832.258064516129 70.9677419354839L832.258064516129 770.9677419354839L832.258064516129 803.2258064516129L832.258064516129 835.483870967742z" />
    <glyph glyph-name="MAC_Twitter"
      unicode="&#xE00A;"
      horiz-adv-x="1000" d=" M916 757.2C885.6 743.5999999999999 852.6 734.5999999999999 818.2 730.4C853.2 751.5999999999999 880.4000000000001 784.8 893 824.5999999999999C860 805 823.8 791 785 783.1999999999999C754 816.1999999999999 709.8 837 660.8 837C566.5999999999999 837 490.6 761 490.6 666.8C490.6 653.4 492.2 640.4 494.9999999999999 628C354 635.1999999999999 228.6 702.8 144.6 806C130 780.8 121.6 751.5999999999999 121.6 720.5999999999999C121.6 661.5999999999999 151.8 609.3999999999999 197.4 578.9999999999999C169.4 579.9999999999999 143.4 587.3999999999999 120.4 600.3999999999999C120.4 599.7999999999998 120.4 598.7999999999998 120.4 598.1999999999998C120.4 515.7999999999998 179.2 446.9999999999999 256.8 431.3999999999999C242.6 427.3999999999999 227.6 425.3999999999999 212 425.3999999999999C201.1999999999999 425.3999999999999 190.1999999999999 426.3999999999999 180 428.5999999999999C201.8 360.8 264.4 311.8 339 310.5999999999999C281 264.9999999999999 207.4 237.5999999999999 127.8 237.5999999999999C114.2 237.5999999999999 100.4 238.5999999999999 87.2 239.9999999999999C162.4 191.7999999999999 251.8 163.5999999999999 348.2 163.5999999999999C661.1999999999999 163.5999999999999 832.3999999999999 422.9999999999999 832.3999999999999 647.8C832.3999999999999 655.1999999999998 831.9999999999999 662.3999999999999 831.7999999999998 669.8C864.4 693.2 893.2 723 916 757.2z" />
    <glyph glyph-name="MAC_Slideshow"
      unicode="&#xE00B;"
      horiz-adv-x="979.7979797979797" d=" M858.5858585858585 717.1717171717172H830.3030303030303V840.4040404040404H711.1111111111111V965.6565656565658H30.3030303030303V282.8282828282829H149.4949494949495V159.5959595959596H268.6868686868687V36.3636363636364H949.4949494949494V717.1717171717172H858.5858585858585zM149.4949494949495 430.3030303030304V333.3333333333334H78.7878787878788V915.1515151515152H662.6262626262625V840.4040404040404H638.3838383838383H149.4949494949495V430.3030303030304zM266.6666666666667 428.2828282828283V331.3131313131313V208.0808080808081H197.979797979798V331.3131313131313V428.2828282828283V791.9191919191919H713.131313131313H737.3737373737373H781.8181818181819V717.1717171717172H713.1313131313132H268.6868686868688V428.2828282828283zM901.010101010101 84.848484848485H317.1717171717172V331.3131313131313V428.2828282828283V668.6868686868688H713.131313131313H781.8181818181816H830.3030303030301H858.5858585858584H898.9898989898987V84.848484848485z" />
    <glyph glyph-name="MAC_Logo"
      unicode="&#xE00C;"
      horiz-adv-x="3826" d=" M1394 540C1380 546 1374 556 1374 564C1374 574 1380 582 1394 588C1408 596 1424 598 1442.0000000000002 598C1462.0000000000002 598 1478 596 1490.0000000000002 588C1504.0000000000005 582 1510.0000000000002 574 1510.0000000000002 564C1510.0000000000002 554 1504.0000000000005 546 1490.0000000000002 540C1476.0000000000002 532 1460.0000000000002 530 1442.0000000000002 530C1424 528 1408 532 1394 540L1394 540zM2372 540C2384 534 2402 530 2420 530C2438 530 2456 534 2468 540C2482 548 2488 556 2488 564C2488 574 2482 582 2468 590C2454 596 2438 600 2420 600C2400 600 2384 596 2372 590C2358 584 2352 576 2352 564C2354 556 2360 548 2372 540L2372 540zM3634 350C3634 350 2800 350 2794 350C2617.9999999999995 372 2602 448 2595.9999999999995 476C2595.9999999999995 476 2595.9999999999995 476 2595.9999999999995 476C2595.9999999999995 478 2595.9999999999995 492 2595.9999999999995 498.0000000000001C2595.9999999999995 498.0000000000001 2595.9999999999995 500.0000000000001 2595.9999999999995 500.0000000000001C2612 582 2675.9999999999995 628.0000000000001 2792 640C2795.9999999999995 640 3632 640 3632 640C3652 640 3668 656.0000000000001 3668 676.0000000000001C3668 696.0000000000001 3652 712.0000000000001 3632 712.0000000000001H2790C2788 712.0000000000001 2788 712.0000000000001 2786 712.0000000000001C2598 692.0000000000001 2542 594 2526 514C2524.0000000000005 510.0000000000001 2524.0000000000005 506.0000000000001 2524.0000000000005 500.0000000000001L2526 468C2526 466 2526 466 2526 466C2532 434 2544.0000000000005 406 2562.0000000000005 382L2404.0000000000005 470L1954 720C1942.0000000000005 730 1926 732 1914 724L1306 370V688C1306 708 1290 724 1270 724C1266 724 1264 724 1260 722C1256 722 1250 720 1246 718L710 460C708 458 706 458 704 456L646.0000000000001 428L708.0000000000001 396C714 394 718.0000000000001 392 724 392C730 392 736.0000000000001 392 742 396L1236 634V314C1236 304 1240 294 1248 288.0000000000001C1260 274 1278 272.0000000000003 1294 280.0000000000001L1508 404.0000000000001C1508 404.0000000000001 1508 404.0000000000001 1510 404.0000000000001L1630 476.0000000000001H1630L1932 652.0000000000002L2250 476.0000000000001H1690L1568 404.0000000000001H2378L2610 274C2628 264 2650 270 2658 288.0000000000001C2662 294 2664.0000000000005 302.0000000000003 2662 310.0000000000001C2698 296.0000000000001 2740 286.0000000000001 2788 280.0000000000001C2790 280.0000000000001 2790 280.0000000000001 2792 280.0000000000001H3634C3654 280.0000000000001 3670 296.0000000000001 3670 316.0000000000001C3670 334 3654 350 3634 350L3634 350zM210 726C192 734 170 728 162 710C160 706 158 700 158 694C158 690 156 688 156 684V310C156 290 172 274 192 274C212 274 228 290 228 310V636L610 442L690 482L210 726L210 726z" />
    <glyph glyph-name="MAC_HeartLike"
      unicode="&#xE00D;"
      horiz-adv-x="1500" d=" M1235.1 577.6C1166.5 420.1 752.0999999999999 50.4 749.9999999999999 44.1C747.7999999999998 50.4 333.3999999999999 420.1 264.8999999999999 577.6C232.8999999999999 651.2 232.9999999999999 725.3 258.3999999999999 789C283.7999999999999 852.8 334.8999999999999 906.4 405.3999999999999 939.6C467.7999999999998 969 534.9999999999999 972.5 596.0999999999999 954.6S712.0999999999999 887.8000000000001 749.9999999999999 831.2C787.7999999999998 887.7 842.7999999999998 936.6 903.8999999999997 954.6C964.9999999999998 972.5 1032.1999999999998 969 1094.6 939.6C1165.1999999999998 906.4 1216.1999999999998 852.8 1241.6 789C1267.1 725.3 1267.2 651.2 1235.1 577.6z" />
    <glyph glyph-name="MAC_Notes"
      unicode="&#xE00E;"
      horiz-adv-x="1000" d=" M156.5040650406504 1000V861.7886178861788V841.4634146341464H0V-2.0325203252031H843.4959349593496V156.5040650406504H884.1463414634146H1000V1000H156.5040650406504zM802.8455284552845 40.650406504065H40.650406504065V800.8130081300812H156.5040650406504V154.4715447154472H802.8455284552845V40.650406504065zM959.349593495935 197.1544715447155H884.1463414634146H843.4959349593496H197.1544715447154V841.4634146341464V861.7886178861788V959.349593495935H959.349593495935V197.1544715447155z" />
    <glyph glyph-name="MAC_SearchBarX"
      unicode="&#xE00F;"
      horiz-adv-x="1000" d=" M810.3515625 283.59375C814.6484374999999 279.296875 816.9921874999999 273.6328124999999 816.9921874999999 267.578125C816.9921874999999 261.5234375 814.6484374999999 255.46875 810.3515625 251.5625L748.4375 189.2578125000001C743.75 184.5703125000001 738.0859375 182.6171875000001 732.421875 182.6171875000001C726.7578125 182.6171875000001 720.703125 184.9609375000001 716.40625 189.2578125000001L499.8046874999999 406.0546875L283.3984375 188.8671875C279.1015625 184.1796875 273.046875 182.2265625 267.3828125 182.2265625C261.71875 182.2265625 255.6640625 184.5703125 251.3671875000001 188.8671875L189.453125 251.1718749999999C185.15625 255.4687499999999 182.8125 261.1328125 182.8125 267.1874999999999C182.8125 273.2421875 185.15625 279.2968749999999 189.453125 283.2031249999999L406.6406250000001 501.1718749999999L188.671875 716.40625C179.6875 725.390625 179.6875 739.84375 188.671875 748.828125L250.5859375 811.1328125C254.8828125 815.4296875 260.546875 817.7734375 266.6015625 817.7734375S278.3203125 815.4296875 282.6171875 811.1328125L500 596.875L717.1875 811.1328125C721.484375 815.4296875 727.1484375 817.7734375 733.203125 817.7734375C739.2578125 817.7734375 744.921875 815.4296875 749.2187499999999 811.1328125L811.1328124999999 748.828125C820.1171875 739.84375 820.1171875 725.390625 811.1328124999999 716.40625L593.5546875 501.3671875L810.3515625 283.59375z" />
    <glyph glyph-name="MAC_Youtube"
      unicode="&#xE010;"
      horiz-adv-x="1000" d=" M980.2 692.6C980.2 777.2 911.8 845.6 827.2 845.6L170.6 845.6C86 845.6 17.6 777.2 17.6 692.6L17.6 307.6C17.6 223 86 154.6 170.6 154.6L827.2 154.6C911.8 154.6 980.2 223 980.2 307.6L980.2 692.6L980.2 692.6zM399 345.2000000000001L399 658.2L672.8 501.6L399 345.2000000000001z" />
    <glyph glyph-name="MAC_Instagram"
      unicode="&#xE011;"
      horiz-adv-x="1000" d=" M836 88.2000000000001H159.4C118 88.2000000000001 85.8 125 85.8 166.4000000000001V599H348C325 566.8 311.2 525.4 311.2 479.4C311.2 369 394 281.5999999999999 499.8 281.5999999999999S688.4 368.9999999999999 688.4 479.3999999999999C688.4 525.3999999999999 674.6 562.1999999999998 651.6 598.9999999999999H913.8V166.3999999999999C914.2 125 877.4 88.2000000000001 836 88.2000000000001zM500 599C564.4 599 610.4 548.4 610.4 479.4C610.4 415 559.8 359.8 500 359.8C435.6 359.8 389.6 410.4 389.6 479.4S435.6 599 500 599zM500 677.2C458.6 677.2 421.8 663.4 389.6 635.8H85.8V833.6C85.8 875 118 911.8 159.4 911.8H836C877.4 911.8 909.6 875 909.6 833.6V635.8H605.8C578.2 663.4 541.4 677.2 500 677.2zM688.6 677.2H877.2V875H688.6V677.2z" />
    <glyph glyph-name="Play"
      unicode="&#xE012;"
      horiz-adv-x="908.6153846153846" d=" M0.7692307692308 999.7948717948718L0.7692307692308 0.5641025641024L909.076923076923 484.6666666666666L0.7692307692308 999.7948717948718z" />
    <glyph glyph-name="X"
      unicode="&#xE013;"
      horiz-adv-x="1000" d=" M983.6814621409922 983.6814621409922L990.2088772845952 977.154046997389L22.845953002611 9.7911227154048L16.3185378590078 16.3185378590078z M972.5848563968668 995.4308093994778C747.3890339425587 770.2349869451697 522.1932114882507 545.0391644908616 297.6501305483029 320.4960835509139C199.7389033942559 222.5848563968668 102.4804177545692 125.3263707571802 4.5691906005222 27.4151436031332C-10.443864229765 12.4020887728459 13.0548302872063 -10.4438642297652 27.4151436031332 4.5691906005221C252.6109660574413 229.7650130548303 477.8067885117494 454.3080939947781 702.3498694516971 679.5039164490861C799.6083550913838 776.7624020887729 897.5195822454308 874.6736292428199 994.7780678851174 971.9321148825067C1010.4438642297652 986.9451697127936 986.9451697127936 1009.7911227154048 972.5848563968668 995.4308093994778L972.5848563968668 995.4308093994778z M983.6814621409922 16.3185378590078L990.2088772845952 9.7911227154048L22.845953002611 977.154046997389L16.3185378590078 983.6814621409922z M995.4308093994778 27.4151436031332C770.2349869451697 252.6109660574413 545.6919060052219 477.8067885117493 320.4960835509139 702.349869451697C223.2375979112272 800.2610966057441 125.3263707571802 897.5195822454308 28.0678851174935 995.4308093994778C13.0548302872063 1009.7911227154048 -9.7911227154047 986.9451697127936 4.5691906005222 971.9321148825067C229.7650130548303 746.7362924281985 454.3080939947781 522.1932114882507 679.5039164490862 296.9973890339426C776.762402088773 199.7389033942558 874.6736292428199 101.8276762402089 971.9321148825067 4.5691906005221C986.9451697127936 -10.4438642297652 1010.4438642297652 13.0548302872063 995.4308093994778 27.4151436031332L995.4308093994778 27.4151436031332z" />
    <glyph glyph-name="MAC_MobileX"
      unicode="&#xE014;"
      horiz-adv-x="1000" d=" M982.5493171471928 101.4162873039959L584.0920586747599 500L982.6757713707638 898.583712696004C1005.9433485078403 921.8512898330804 1005.9433485078403 959.4081942336874 982.6757713707638 982.6757713707638S921.8512898330806 1005.9433485078403 898.583712696004 982.6757713707638L500.0000000000001 584.0920586747598L101.4162873039959 982.6757713707638C78.2751643904907 1005.816894284269 40.5918057663126 1005.816894284269 17.3242286292362 982.6757713707638S-5.9433485078401 921.8512898330804 17.3242286292362 898.583712696004L415.9079413252404 500L17.3242286292362 101.4162873039959C-5.9433485078401 78.1487101669195 -5.9433485078401 40.5918057663125 17.3242286292362 17.3242286292361C40.5918057663126 -5.9433485078403 78.1487101669196 -5.9433485078403 101.4162873039959 17.3242286292361L499.9999999999999 415.9079413252402L898.583712696004 17.3242286292361C921.8512898330806 -5.9433485078403 959.4081942336873 -5.9433485078403 982.6757713707638 17.3242286292361S1005.816894284269 78.2751643904907 982.5493171471928 101.4162873039959z" />
  </font>
</defs>
</svg>
